<?xml version="1.0" encoding="UTF-8"?>
<svg width="452px" height="616px" viewBox="0 0 452 616" version="1.1" xmlns="http://www.w3.org/2000/svg" xmlns:xlink="http://www.w3.org/1999/xlink">
    <!-- Generator: Sketch 45.2 (43514) - http://www.bohemiancoding.com/sketch -->
    <title>Page 1</title>
    <desc>Created with Sketch.</desc>
    <defs>
        <polygon id="path-1" points="615.328463 615.372277 615.328463 0.133301582 0 0.133301582 0 615.372277"></polygon>
    </defs>
    <g id="Page-1" stroke="none" stroke-width="1" fill="none" fill-rule="evenodd">
        <g id="Desktop-HD-Copy-40" transform="translate(-988.000000, -141.000000)">
            <g id="Page-1" transform="translate(988.000000, 141.000000)">
                <mask id="mask-2" fill="white">
                    <use xlink:href="#path-1"></use>
                </mask>
                <g id="Clip-2"></g>
                <path d="M561.224659,189.457976 C561.409068,189.335037 561.593477,189.220879 561.769104,189.089158 C560.662651,186.73575 559.547417,184.391123 558.388275,181.949901 C557.158883,182.485565 556.280745,182.871945 555.692393,183.117824 C557.597952,185.295605 559.415696,187.385572 561.224659,189.457976 L561.224659,189.457976 Z M395.362061,574.266581 C398.540918,573.151347 401.315832,572.185395 403.361893,571.465323 C400.692355,568.716753 397.943785,565.906713 395.362061,563.263519 L395.362061,574.266581 Z M161.1189,228.666813 C176.881467,244.446942 192.61769,260.200728 208.362694,275.963295 C198.1763,254.668462 181.237029,240.108943 161.1189,228.666813 L161.1189,228.666813 Z M395.239121,533.283907 C395.239121,539.097177 395.186433,544.761163 395.29181,550.407587 C395.309372,551.32085 395.87138,552.418522 396.521202,553.085906 C401.140205,557.819067 405.820678,562.481977 410.536276,567.118542 C410.992907,567.575174 411.923733,568.119619 412.371583,567.943992 C416.577861,566.266749 420.731451,564.449005 424.656725,562.780543 C414.724991,552.822465 405.091823,543.162953 395.239121,533.283907 L395.239121,533.283907 Z M578.532748,235.393345 C578.699594,235.35822 578.884003,235.323094 579.050849,235.279187 C576.11787,226.576845 573.193672,217.856941 570.234349,209.16338 C570.032378,208.566247 569.637216,207.969113 569.180584,207.521263 C562.383801,200.680573 555.569454,193.848663 548.702419,187.078224 C548.219444,186.595248 547.148116,186.182523 546.586108,186.375714 C542.344704,187.868547 538.147207,189.537008 534.186808,191.047405 C549.02733,205.896709 563.780039,220.649418 578.532748,235.393345 L578.532748,235.393345 Z M395.265466,504.401967 C395.265466,510.004484 395.195215,515.914349 395.335717,521.815432 C395.362061,522.658444 396.31923,523.580488 397.02174,524.282998 C402.404723,529.72745 407.831612,535.119214 413.232157,540.537322 C419.440589,546.754535 425.631458,552.98053 431.962829,559.347026 C436.18667,557.090213 440.261228,554.912432 443.85281,552.989311 L395.265466,504.401967 Z M461.916097,542.047719 C439.567499,519.699121 417.315497,497.438337 395.239121,475.370743 C395.239121,479.682398 395.370842,484.573624 395.186433,489.456068 C395.081057,492.020229 395.836255,493.829192 397.680344,495.655718 C410.132332,507.940861 422.461382,520.348943 434.825557,532.713118 C439.708001,537.595562 444.634352,542.434099 449.446545,547.386794 C450.56178,548.537154 451.422354,548.783033 452.80103,547.860988 C456.015013,545.718333 459.308029,543.707398 461.916097,542.047719 L461.916097,542.047719 Z M585.89154,271.669203 C585.197811,267.146795 584.565552,262.097505 583.59082,257.136028 C583.02003,254.255737 582.695119,250.681718 580.851031,248.793723 C563.34097,230.853375 545.532343,213.202812 527.767623,195.508343 C527.214396,194.963898 526.002567,194.428234 525.396652,194.665331 C521.286969,196.228416 517.273881,198.002253 513.717424,199.503868 C537.883766,223.670211 561.988639,247.766302 585.89154,271.669203 L585.89154,271.669203 Z M479.294437,529.622074 C451.185257,501.398737 423.313175,473.43006 395.239121,445.250629 C395.239121,450.475547 395.344498,455.638995 395.186433,460.776099 C395.116182,462.971443 395.87138,464.473058 397.381777,465.983454 C420.503135,489.02578 443.571806,512.120795 466.649258,535.207028 C467.36933,535.909538 468.124528,536.55936 468.949978,537.305776 C472.655718,534.557206 476.133142,531.975482 479.294437,529.622074 L479.294437,529.622074 Z M588.069321,303.115304 C588.078102,302.974802 588.19226,302.439138 588.157134,301.921037 C587.893693,297.012249 587.472187,292.103461 587.375592,287.203454 C587.322904,284.806139 586.348171,283.207929 584.723617,281.583374 C564.666958,261.62331 544.662987,241.610558 524.650235,221.606588 C518.968686,215.925038 513.304699,210.208364 507.561681,204.579503 C506.850389,203.885774 505.454151,203.025199 504.769204,203.279859 C500.694646,204.825381 496.725465,206.678251 493.177789,208.241336 C524.931239,239.994785 556.526624,271.581389 588.069321,303.115304 L588.069321,303.115304 Z M103.284769,200.074658 C103.249643,200.197597 103.205736,200.320536 103.170611,200.452257 C137.813133,235.094779 172.464436,269.746082 207.203553,304.485199 C208.555884,300.305264 212.516284,299.365657 217.126506,298.022107 C215.739049,295.747731 214.896037,293.526043 213.359296,291.980522 C190.808727,269.28945 168.073749,246.800351 145.637337,224.012684 C139.762598,218.050131 133.457571,213.150124 125.703617,209.971267 C118.151635,206.86266 110.748937,203.385236 103.284769,200.074658 L103.284769,200.074658 Z M494.995534,516.537826 C461.626311,483.14226 428.336121,449.825725 395.239121,416.6936 C395.239121,421.224789 395.318154,426.317986 395.195215,431.402402 C395.142526,433.545057 395.766004,435.090579 397.311526,436.62732 C426.044183,465.272163 454.724151,493.978475 483.421683,522.658444 C484.071504,523.317047 484.765233,523.914181 485.573119,524.651816 C489.041762,521.657367 492.396247,518.777077 494.995534,516.537826 L494.995534,516.537826 Z M188.534351,561.999001 C143.459556,516.924207 98.3759805,471.849412 53.301186,426.765836 C54.0476028,427.679099 54.4778901,428.926054 55.1013677,430.05007 C60.2735972,439.37589 65.3667943,448.736835 70.7234327,457.948497 C75.1492453,465.57073 80.6639484,472.341169 87.0041007,478.567164 C105.559145,496.797297 123.841966,515.299652 142.274071,533.679069 C143.80203,535.207028 145.444147,536.682299 147.25311,537.859003 C154.295772,542.434099 161.31209,547.079446 168.547943,551.32085 C175.116411,555.167092 181.974664,558.512796 188.534351,561.999001 L188.534351,561.999001 Z M587.226309,331.891868 C587.445843,327.062112 587.524875,322.2587 587.946381,317.481633 C588.13079,315.277508 587.542438,313.802237 585.988135,312.247934 C562.31355,288.669943 538.709215,265.030484 515.078537,241.408587 C505.840531,232.170581 496.620088,222.923794 487.329394,213.747258 C486.591759,213.018403 485.055018,212.184173 484.352508,212.48274 C480.462359,214.133638 476.721494,216.118229 473.200163,217.856941 C511.19717,255.862729 549.097581,293.754359 587.226309,331.891868 L587.226309,331.891868 Z M509.572615,501.943182 C471.399981,463.752985 433.165877,425.5101 395.239121,387.557 C395.239121,391.90378 395.344498,397.005759 395.186433,402.098956 C395.116182,404.294299 395.880162,405.760789 397.390558,407.271185 C431.286663,441.088258 465.138861,474.958019 498.964715,508.836561 C499.623318,509.495164 499.983355,510.461115 500.360954,511.075811 C504.110601,507.36129 507.245551,504.261465 509.572615,501.943182 L509.572615,501.943182 Z M396.029445,359.421476 L395.239121,360.220582 C395.239121,364.374172 395.353279,368.536543 395.195215,372.681352 C395.098619,374.859133 395.845036,376.369529 397.355433,377.879925 C436.046168,416.50041 474.692996,455.173582 513.366169,493.820411 C514.059898,494.522921 514.823877,495.163961 515.710796,495.963066 C518.757933,492.397828 521.567973,489.122375 525.089304,485.003911 C523.974069,484.310182 522.832491,483.871114 522.042167,483.089571 C482.148383,443.257257 442.298507,403.381036 402.360816,363.592629 C400.613323,361.853917 398.163319,360.800152 396.029445,359.421476 L396.029445,359.421476 Z M407.49792,357.46323 C447.918586,397.927803 488.593912,438.655817 529.427303,479.533115 C531.859743,476.248881 534.485374,472.718768 536.803657,469.592599 C493.792486,426.590209 451.027193,383.816134 408.437527,341.226469 C408.130179,346.451387 407.805268,352.09781 407.49792,357.46323 L407.49792,357.46323 Z M454.451929,228.166274 C497.673853,271.388199 540.772838,314.487184 583.740103,357.46323 C584.266986,354.345842 584.644585,350.69279 585.522722,347.153897 C586.497455,343.211059 585.12756,340.664461 582.291176,337.84564 C544.241481,300.033042 506.332288,262.071161 468.414314,224.118061 C467.615209,223.318956 467.053201,222.291535 466.377035,221.351928 C461.784376,223.98634 457.815195,226.251935 454.451929,228.166274 L454.451929,228.166274 Z M548.474104,451.713721 C501.511314,404.759712 454.926123,358.16574 408.156523,311.404922 C408.156523,316.515681 408.2619,321.670348 408.103835,326.816234 C408.033584,329.090609 408.780001,330.644913 410.378211,332.243123 C453.231318,375.008416 496.040517,417.826397 538.858499,460.635597 C539.56979,461.35567 540.33377,462.031836 541.343628,462.971443 C543.881445,458.958355 546.287541,455.182364 548.474104,451.713721 L548.474104,451.713721 Z M206.720577,333.894021 C206.720577,328.045626 206.597638,322.952429 206.782047,317.876794 C206.861079,315.602419 206.158569,314.048115 204.560359,312.449905 C168.100093,276.077453 131.552013,239.810377 95.4166573,203.139357 C87.9173636,195.517124 79.8999689,189.624822 69.6433236,186.726969 C66.29762,185.787362 63.0924184,184.320872 59.7906216,183.2232 C58.7544194,182.871945 57.5864967,182.924634 56.4800435,182.792913 C57.0947397,183.750083 57.5689339,184.847755 58.3416948,185.620516 C106.911476,234.242985 155.507602,282.830329 204.094946,331.417674 C204.753549,332.076277 205.447278,332.699754 206.720577,333.894021 L206.720577,333.894021 Z M578.304432,381.8052 C579.252821,377.958958 580.122177,373.928307 581.246193,369.967907 C581.86967,367.798908 581.413039,366.332418 579.788485,364.716645 C536.382151,321.398126 493.028506,278.04448 449.66608,234.699617 C448.937226,233.970763 448.182027,233.285815 447.30389,232.460366 C443.519118,235.10356 439.848503,237.65894 436.494018,240.003567 C483.85197,287.361519 531.00795,334.508717 578.304432,381.8052 L578.304432,381.8052 Z M571.112487,404.382113 C572.420912,400.456839 573.56249,396.698411 574.96751,393.036577 C575.749052,391.00808 575.450486,389.743562 573.861057,388.154133 C526.766546,341.156218 479.733505,294.114395 432.718027,247.037448 C432.006736,246.334938 431.734513,245.184578 431.251538,244.236189 C427.133073,248.249277 423.989341,251.322758 421.012455,254.220612 C471.07507,304.30079 520.900588,354.152652 571.112487,404.382113 L571.112487,404.382113 Z M416.147574,260.033882 C414.022481,263.274209 412.204737,266.233532 410.193802,269.061135 C408.797563,271.001818 408.999535,272.257555 410.75581,274.01383 C460.52864,323.66372 510.24,373.37508 559.968923,423.077659 C560.680214,423.797732 561.435412,424.456335 562.418926,425.360816 C563.973229,421.760453 565.237747,418.414749 566.85352,415.253455 C568.056568,412.864921 567.687751,411.363306 565.76463,409.440185 C516.659184,360.457679 467.62399,311.39614 418.580014,262.352165 C417.921411,261.693561 417.227683,261.052521 416.147574,260.033882 L416.147574,260.033882 Z M405.170856,278.36061 C403.686804,282.162945 402.466193,285.51743 401.034829,288.801664 C399.945938,291.295574 400.446476,292.999161 402.431067,294.97497 C451.756047,344.159448 501.010775,393.431739 550.274285,442.668905 C550.906544,443.301164 551.600273,443.898298 552.495973,444.714965 C554.287374,441.378043 555.806551,438.251874 557.615514,435.283769 C558.967846,433.062082 558.721968,431.665843 556.798847,429.751504 C507.078705,380.163083 457.437596,330.495629 407.770143,280.836957 C407.05007,280.116885 406.294872,279.423156 405.170856,278.36061 L405.170856,278.36061 Z M219.594072,359.948359 C218.715934,360.141549 217.98708,360.264488 217.275789,360.448897 C211.98062,361.81001 207.414306,358.894594 206.799609,353.5643 C206.536168,351.325049 206.597638,349.024329 206.764484,346.758735 C206.896205,344.782925 206.184913,343.430594 204.815019,342.060699 C154.848999,292.16493 104.918104,242.251599 54.9872098,192.329486 C54.3549509,191.714789 53.6612223,191.152781 52.7479594,190.344895 C51.0180286,194.331639 49.5427578,197.984691 47.8742966,201.549929 C47.1015357,203.192046 47.4352279,204.184341 48.6909644,205.431296 C104.935667,261.614529 161.145244,317.832888 217.372384,374.051246 C217.969518,374.64838 218.654465,375.157699 219.594072,375.956804 L219.594072,359.948359 Z M219.717011,574.249018 C219.717011,570.859408 219.927764,567.926429 219.64676,565.046138 C219.488695,563.509398 218.882781,561.67409 217.837797,560.620325 C158.256172,500.942105 98.6130776,441.325355 38.9787644,381.717386 C38.4431006,381.172941 37.8108416,380.716309 36.7219512,379.811828 C36.950267,381.155378 36.9853924,381.813981 37.1698013,382.419896 C39.4002704,389.506465 41.4902375,396.645722 43.9929292,403.644478 C44.8359411,406.02423 46.3990257,408.368857 48.1904261,410.169039 C100.263976,462.347965 152.442902,514.430296 204.454983,566.679474 C208.7842,571.017473 214.193527,571.948298 219.717011,574.249018 L219.717011,574.249018 Z M218.408586,405.585161 C218.847655,405.269032 219.286724,404.944121 219.717011,404.61921 C219.717011,399.526013 219.629197,394.432816 219.769699,389.339619 C219.831169,387.170619 219.119878,385.651442 217.591919,384.114701 C160.548111,327.158707 103.539429,270.141244 46.521965,213.150124 C45.8721433,212.509084 45.1871961,211.920732 44.2124635,211.007469 C42.9128201,214.818585 41.8941807,218.331135 40.4979422,221.68562 C39.4002704,224.337595 39.9359342,226.023619 41.9907758,228.069679 C100.343008,286.272628 158.607427,344.563391 216.863064,402.862935 C217.574356,403.574227 217.899267,404.671898 218.408586,405.585161 L218.408586,405.585161 Z M38.2060035,232.916998 C37.7669348,233.215564 37.3190847,233.531694 36.8624532,233.830261 C35.8701579,238.036539 35.0095832,242.286724 33.8153163,246.422751 C33.3059966,248.196589 33.7889722,249.197666 34.9656764,250.37437 C95.7591309,311.115136 156.51746,371.873465 217.293352,432.631794 C217.899267,433.237709 218.575432,433.764592 219.717011,434.783231 C219.717011,428.917273 219.629197,423.824076 219.769699,418.73966 C219.831169,416.579442 219.13744,415.069046 217.609481,413.541087 C158.282516,354.293154 98.9906767,294.992533 39.7339626,235.674349 C39.0226713,234.963058 38.7153232,233.847823 38.2060035,232.916998 L38.2060035,232.916998 Z M219.717011,552.400959 C219.717011,546.297904 219.857513,541.029079 219.64676,535.786599 C219.576509,534.276202 218.909125,532.414551 217.85536,531.369567 C155.885201,469.276469 93.8360099,407.262404 31.7956002,345.230776 C31.1896854,344.633642 30.5135196,344.089197 29.8636979,343.527189 C30.2325156,349.54243 31.4004384,355.171291 32.1205111,360.85284 C32.5947053,364.549799 34.3070733,367.184211 36.8887973,369.765935 C96.83924,429.60222 156.719432,489.499975 216.608405,549.388948 C217.442635,550.223178 218.294428,551.022283 219.717011,552.400959 L219.717011,552.400959 Z M218.478837,464.3589 C218.900343,464.051552 219.304287,463.735422 219.717011,463.419293 C219.717011,458.053873 219.831169,452.670891 219.64676,447.296689 C219.602853,445.970702 218.909125,444.346148 217.969518,443.406541 C156.71065,382.05986 95.3990946,320.757085 34.0875389,259.463092 C33.4289358,258.804489 32.7264259,258.207356 31.6111914,257.171154 C30.8559932,262.009691 30.2325156,266.356471 29.4773174,270.668126 C29.0558114,273.039097 29.8110096,274.65487 31.5409404,276.376019 C93.3705971,338.091518 155.138784,399.859705 216.889409,461.654237 C217.609481,462.365528 217.960736,463.445637 218.478837,464.3589 L218.478837,464.3589 Z M218.268084,493.794067 C218.759841,493.407686 219.242817,493.012524 219.717011,492.626144 C219.717011,487.611979 219.602853,482.606596 219.778481,477.601212 C219.857513,475.195116 219.023283,473.570562 217.354821,471.9021 C193.689018,448.332892 170.058339,424.702213 146.436442,401.089098 C107.95646,362.609115 69.4764775,324.120352 30.9877138,285.640369 C30.2325156,284.885171 29.4334105,284.156317 28.0986416,282.883018 C27.7825121,288.345033 27.5805405,293.043068 27.2029414,297.72354 C26.9921884,300.182325 27.8000749,301.921037 29.5563498,303.677312 C92.0446096,366.060195 154.488963,428.504548 216.89819,490.966464 C217.591919,491.668974 217.829016,492.845678 218.268084,493.794067 L218.268084,493.794067 Z M219.717011,522.877978 C219.717011,516.871518 219.857513,511.620257 219.64676,506.377776 C219.576509,504.86738 218.900343,503.01451 217.846578,501.969526 C155.138784,439.147574 92.360739,376.395873 29.5914753,313.635391 C28.9767791,313.020694 28.3006132,312.467468 27.0009698,311.281982 C27.3258807,318.131454 27.5102895,324.076445 27.9581396,329.995091 C28.0459534,331.13667 29.0294673,332.383625 29.8988234,333.270544 C92.3080508,395.723678 154.743622,458.150468 217.179194,520.568477 C217.811453,521.191955 218.4964,521.762744 219.717011,522.877978 L219.717011,522.877978 Z M394.185357,345.046367 C394.185357,333.894021 394.220482,323.303684 394.07998,312.722128 C394.071199,311.984492 392.710086,310.913165 391.77926,310.605817 C368.772059,303.071397 345.343352,297.837698 321.036508,296.608306 C304.729496,295.782857 288.536642,296.485367 272.396476,298.654366 C255.465986,300.928742 239.053597,305.442368 222.799274,310.649723 C220.99031,311.229294 220.498553,312.063525 220.516116,313.846144 C220.595149,323.400279 220.54246,332.963196 220.560023,342.526112 C220.560023,343.237404 220.718088,343.957476 220.841027,345.028804 C278.604907,325.700999 336.201942,325.700999 394.185357,345.046367 L394.185357,345.046367 Z M371.924573,466.861592 C371.924573,429.848099 371.915791,392.843387 371.959698,355.838676 C371.968479,353.827741 371.766508,352.615911 369.386755,352.027559 C353.053399,347.996908 336.500508,345.301027 319.701739,344.598517 C295.052422,343.571096 270.684108,345.669844 246.702174,351.781681 C243.953604,352.484191 242.952528,353.353547 242.952528,356.365558 C243.057904,429.997382 243.03156,503.629206 243.03156,577.269811 C243.03156,577.744005 243.101811,578.226981 243.022779,578.683612 C242.706649,580.422325 243.707726,581.080928 245.165434,581.300462 C259.040005,583.390429 272.844326,586.182906 286.79793,587.350829 C299.188449,588.37825 311.737033,587.860149 324.206584,587.561582 C339.231516,587.201546 354.001788,584.690072 368.693027,581.599029 C371.555755,581.001895 371.986042,579.851535 371.977261,577.313718 C371.90701,540.493415 371.924573,503.673113 371.924573,466.861592 L371.924573,466.861592 Z M68.6949352,161.225858 C81.3225515,166.178553 93.8360099,170.867807 106.191404,175.961004 C132.008644,186.612811 157.325346,198.292039 181.026276,213.255501 C209.794058,231.415383 229.517025,256.301798 238.447683,289.363672 C239.000909,291.365825 239.922953,291.234105 241.547508,290.803817 C258.838034,286.290191 276.435908,283.532839 294.279661,282.724953 C320.92235,281.513123 347.266473,283.989471 373.127621,290.724785 C375.287839,291.295574 375.981568,291.040914 376.613826,288.792883 C382.945197,265.987653 394.501486,246.247124 411.871044,230.080614 C423.576616,219.19171 437.056026,210.814278 450.983286,203.130576 C480.286732,186.99041 511.267421,174.635016 542.476425,162.832849 C543.846319,162.314748 545.18987,161.787866 546.59489,161.234639 C507.798778,95.857307 420.309945,22.2781714 294.306005,27.5909029 C200.547271,31.5425213 114.085859,84.6961802 68.6949352,161.225858 L68.6949352,161.225858 Z M-0.00175627487,307.839684 C-0.0368817722,137.823495 137.707756,0.0612943128 307.680038,0.131545308 C477.687445,0.210577677 615.458427,138.051811 615.335488,307.953841 C615.203767,477.90856 477.344972,615.495134 307.293657,615.372194 C137.549691,615.258037 0.0333692225,477.627556 -0.00175627487,307.839684 L-0.00175627487,307.839684 Z" id="Fill-1" fill="#EC145A" mask="url(#mask-2)"></path>
            </g>
        </g>
    </g>
</svg>