<?xml version="1.0" encoding="UTF-8"?>
<svg width="314px" height="40px" viewBox="0 0 314 40" version="1.1" xmlns="http://www.w3.org/2000/svg" xmlns:xlink="http://www.w3.org/1999/xlink">
    <!-- Generator: Sketch 45.2 (43514) - http://www.bohemiancoding.com/sketch -->
    <title>line-graphic</title>
    <desc>Created with Sketch.</desc>
    <defs></defs>
    <g id="Page-1" stroke="none" stroke-width="1" fill="none" fill-rule="evenodd">
        <g id="artboard-copy" transform="translate(-6.000000, -1612.000000)" fill="#ED145B">
            <g id="line-graphic" transform="translate(6.621289, 1612.408203)">
                <rect id="Rectangle-19" transform="translate(19.516614, 19.839898) rotate(45.000000) translate(-19.516614, -19.839898) " x="17.9621934" y="-6.37711009" width="3.10884117" height="52.4340163"></rect>
                <rect id="Rectangle-19" transform="translate(36.787954, 19.839898) rotate(45.000000) translate(-36.787954, -19.839898) " x="35.2335332" y="-6.37711009" width="3.10884117" height="52.4340163"></rect>
                <rect id="Rectangle-19" transform="translate(54.059294, 19.839898) rotate(45.000000) translate(-54.059294, -19.839898) " x="52.504873" y="-6.37711009" width="3.10884117" height="52.4340163"></rect>
                <rect id="Rectangle-19" transform="translate(71.330633, 19.839898) rotate(45.000000) translate(-71.330633, -19.839898) " x="69.7762128" y="-6.37711009" width="3.10884117" height="52.4340163"></rect>
                <rect id="Rectangle-19" transform="translate(88.601973, 19.839898) rotate(45.000000) translate(-88.601973, -19.839898) " x="87.0475527" y="-6.37711009" width="3.10884117" height="52.4340163"></rect>
                <rect id="Rectangle-19" transform="translate(105.873313, 19.839898) rotate(45.000000) translate(-105.873313, -19.839898) " x="104.318892" y="-6.37711009" width="3.10884117" height="52.4340163"></rect>
                <rect id="Rectangle-19" transform="translate(123.144653, 19.839898) rotate(45.000000) translate(-123.144653, -19.839898) " x="121.590232" y="-6.37711009" width="3.10884117" height="52.4340163"></rect>
                <rect id="Rectangle-19" transform="translate(140.415993, 19.839898) rotate(45.000000) translate(-140.415993, -19.839898) " x="138.861572" y="-6.37711009" width="3.10884117" height="52.4340163"></rect>
                <rect id="Rectangle-19" transform="translate(157.687332, 19.839898) rotate(45.000000) translate(-157.687332, -19.839898) " x="156.132912" y="-6.37711009" width="3.10884117" height="52.4340163"></rect>
                <rect id="Rectangle-19" transform="translate(174.958672, 19.839898) rotate(45.000000) translate(-174.958672, -19.839898) " x="173.404252" y="-6.37711009" width="3.10884117" height="52.4340163"></rect>
                <rect id="Rectangle-19" transform="translate(192.230012, 19.839898) rotate(45.000000) translate(-192.230012, -19.839898) " x="190.675592" y="-6.37711009" width="3.10884117" height="52.4340163"></rect>
                <rect id="Rectangle-19" transform="translate(209.501352, 19.839898) rotate(45.000000) translate(-209.501352, -19.839898) " x="207.946931" y="-6.37711009" width="3.10884117" height="52.4340163"></rect>
                <rect id="Rectangle-19" transform="translate(226.772692, 19.839898) rotate(45.000000) translate(-226.772692, -19.839898) " x="225.218271" y="-6.37711009" width="3.10884117" height="52.4340163"></rect>
                <rect id="Rectangle-19" transform="translate(244.044032, 19.839898) rotate(45.000000) translate(-244.044032, -19.839898) " x="242.489611" y="-6.37711009" width="3.10884117" height="52.4340163"></rect>
                <rect id="Rectangle-19" transform="translate(261.315371, 19.839898) rotate(45.000000) translate(-261.315371, -19.839898) " x="259.760951" y="-6.37711009" width="3.10884117" height="52.4340163"></rect>
                <rect id="Rectangle-19" transform="translate(278.586711, 19.839898) rotate(45.000000) translate(-278.586711, -19.839898) " x="277.032291" y="-6.37711009" width="3.10884117" height="52.4340163"></rect>
                <rect id="Rectangle-19" transform="translate(295.858051, 19.839898) rotate(45.000000) translate(-295.858051, -19.839898) " x="294.30363" y="-6.37711009" width="3.10884117" height="52.4340163"></rect>
                <rect id="Rectangle-19" transform="translate(313.129391, 19.839898) rotate(45.000000) translate(-313.129391, -19.839898) " x="311.57497" y="-6.37711009" width="3.10884117" height="52.4340163"></rect>
            </g>
        </g>
    </g>
</svg>